HIERARCHY
ROOT hip
{
  OFFSET 0 0 0
  CHANNELS 6 Xposition Yposition Zposition Zrotation Yrotation Xrotation
  JOINT abdomen
  {
    OFFSET 0 20.6881 -0.73152
    CHANNELS 3 Zrotation Xrotation Yrotation
    JOINT chest
    {
      OFFSET 0 11.7043 -0.48768
      CHANNELS 3 Zrotation Xrotation Yrotation
      JOINT neck
      {
        OFFSET 0 22.1894 -2.19456
        CHANNELS 3 Zrotation Xrotation Yrotation
        JOINT head
        {
          OFFSET -0.24384 7.07133 1.2192
          CHANNELS 3 Zrotation Xrotation Yrotation
          JOINT leftEye
          {
            OFFSET 4.14528 8.04674 8.04672
            CHANNELS 3 Zrotation Xrotation Yrotation
            End Site
            {
              OFFSET 1 0 0
            }
          }
          JOINT rightEye
          {
            OFFSET -3.6576 8.04674 8.04672
            CHANNELS 3 Zrotation Xrotation Yrotation
            End Site
            {
              OFFSET 1 0 0
            }
          }
        }
      }
      JOINT rCollar
      {
        OFFSET -2.68224 19.2634 -4.8768
        CHANNELS 3 Zrotation Xrotation Yrotation
        JOINT rShldr
        {
          OFFSET -8.77824 -1.95073 1.46304
          CHANNELS 3 Zrotation Xrotation Yrotation
          JOINT rForeArm
          {
            OFFSET -28.1742 -1.7115 0.48768
            CHANNELS 3 Zrotation Xrotation Yrotation
            JOINT rHand
            {
              OFFSET -22.5879 0.773209 7.07136
              CHANNELS 3 Zrotation Xrotation Yrotation
              JOINT rThumb1
              {
                OFFSET -1.2192 -0.487915 3.41376
                CHANNELS 3 Zrotation Xrotation Yrotation
                JOINT rThumb2
                {
                  OFFSET -3.37035 -0.52449 3.41376
                  CHANNELS 3 Zrotation Xrotation Yrotation
                  End Site
                  {
                    OFFSET -1.78271 -1.18214 1.43049
                  }
                }
              }
              JOINT rIndex1
              {
                OFFSET -7.75947 0.938293 5.60832
                CHANNELS 3 Zrotation Xrotation Yrotation
                JOINT rIndex2
                {
                  OFFSET -2.54057 -0.884171 1.56538
                  CHANNELS 3 Zrotation Xrotation Yrotation
                  End Site
                  {
                    OFFSET -1.62519 -0.234802 1.16502
                  }
                }
              }
              JOINT rMid1
              {
                OFFSET -8.24714 1.18213 3.41376
                CHANNELS 3 Zrotation Xrotation Yrotation
                JOINT rMid2
                {
                  OFFSET -3.10165 -0.590103 1.0647
                  CHANNELS 3 Zrotation Xrotation Yrotation
                  End Site
                  {
                    OFFSET -2.48547 -0.328903 0.83742
                  }
                }
              }
              JOINT rRing1
              {
                OFFSET -8.82822 0.546677 1.51678
                CHANNELS 3 Zrotation Xrotation Yrotation
                JOINT rRing2
                {
                  OFFSET -2.60934 -0.819778 -0.0198488
                  CHANNELS 3 Zrotation Xrotation Yrotation
                  End Site
                  {
                    OFFSET -2.33842 -0.294052 0.168128
                  }
                }
              }
              JOINT rPinky1
              {
                OFFSET -8.27202 -0.0477905 -0.4584
                CHANNELS 3 Zrotation Xrotation Yrotation
                JOINT rPinky2
                {
                  OFFSET -1.82734 -0.647385 -0.700984
                  CHANNELS 3 Zrotation Xrotation Yrotation
                  End Site
                  {
                    OFFSET -1.69225 -0.51767 -0.607171
                  }
                }
              }
            }
          }
        }
      }
      JOINT lCollar
      {
        OFFSET 2.68224 19.2634 -4.8768
        CHANNELS 3 Zrotation Xrotation Yrotation
        JOINT lShldr
        {
          OFFSET 8.77824 -1.95073 1.46304
          CHANNELS 3 Zrotation Xrotation Yrotation
          JOINT lForeArm
          {
            OFFSET 28.1742 -1.7115 0.48768
            CHANNELS 3 Zrotation Xrotation Yrotation
            JOINT lHand
            {
              OFFSET 22.5879 0.773209 7.07136
              CHANNELS 3 Zrotation Xrotation Yrotation
              JOINT lThumb1
              {
                OFFSET 1.2192 -0.487915 3.41376
                CHANNELS 3 Zrotation Xrotation Yrotation
                JOINT lThumb2
                {
                  OFFSET 3.37035 -0.52449 3.41376
                  CHANNELS 3 Zrotation Xrotation Yrotation
                  End Site
                  {
                    OFFSET 1.78271 -1.18214 1.43049
                  }
                }
              }
              JOINT lIndex1
              {
                OFFSET 7.75947 0.938293 5.60832
                CHANNELS 3 Zrotation Xrotation Yrotation
                JOINT lIndex2
                {
                  OFFSET 2.54057 -0.884171 1.56538
                  CHANNELS 3 Zrotation Xrotation Yrotation
                  End Site
                  {
                    OFFSET 1.62519 -0.234802 1.16502
                  }
                }
              }
              JOINT lMid1
              {
                OFFSET 8.24714 1.18213 3.41376
                CHANNELS 3 Zrotation Xrotation Yrotation
                JOINT lMid2
                {
                  OFFSET 3.10165 -0.590103 1.0647
                  CHANNELS 3 Zrotation Xrotation Yrotation
                  End Site
                  {
                    OFFSET 2.48547 -0.328903 0.83742
                  }
                }
              }
              JOINT lRing1
              {
                OFFSET 8.82822 0.546677 1.51678
                CHANNELS 3 Zrotation Xrotation Yrotation
                JOINT lRing2
                {
                  OFFSET 2.60934 -0.819778 -0.0198488
                  CHANNELS 3 Zrotation Xrotation Yrotation
                  End Site
                  {
                    OFFSET 2.33842 -0.294052 0.168128
                  }
                }
              }
              JOINT lPinky1
              {
                OFFSET 8.27202 -0.0477905 -0.4584
                CHANNELS 3 Zrotation Xrotation Yrotation
                JOINT lPinky2
                {
                  OFFSET 1.82734 -0.647385 -0.700984
                  CHANNELS 3 Zrotation Xrotation Yrotation
                  End Site
                  {
                    OFFSET 1.69225 -0.51767 -0.607171
                  }
                }
              }
            }
          }
        }
      }
    }
  }
  JOINT rButtock
  {
    OFFSET -8.77824 4.35084 1.2192
    CHANNELS 3 Zrotation Xrotation Yrotation
    JOINT rThigh
    {
      OFFSET 0 -1.70687 -2.19456
      CHANNELS 3 Zrotation Xrotation Yrotation
      JOINT rShin
      {
        OFFSET 0 -36.8199 0.73152
        CHANNELS 3 Zrotation Xrotation Yrotation
        JOINT rFoot
        {
          OFFSET 0.73152 -45.1104 -5.12064
          CHANNELS 3 Zrotation Xrotation Yrotation
          End Site
          {
            OFFSET -1.1221 -3.69964 12.103
          }
        }
      }
    }
  }
  JOINT lButtock
  {
    OFFSET 8.77824 4.35084 1.2192
    CHANNELS 3 Zrotation Xrotation Yrotation
    JOINT lThigh
    {
      OFFSET 0 -1.70687 -2.19456
      CHANNELS 3 Zrotation Xrotation Yrotation
      JOINT lShin
      {
        OFFSET 0 -36.8199 0.73152
        CHANNELS 3 Zrotation Xrotation Yrotation
        JOINT lFoot
        {
          OFFSET -0.73152 -45.1104 -5.12064
          CHANNELS 3 Zrotation Xrotation Yrotation
          End Site
          {
            OFFSET 1.1221 -3.69964 12.103
          }
        }
      }
    }
  }
}
MOTION
Frames:	4
Frame Time:	0.00833333
3.25225 83.6743 19.2129 -461.627 -79.0963 462.54 16.1917 1.44089 0.269978 1.46249 -2.49477 0.155987 -6.17767 -2.0794 -4.20275 8.69533 -11.4092 -5.60103 -0.0 0.0 0.0 -0.0 0.0 0.0 3.85679e-13 -1.44193e-12 -1.14284e-13 57.5743 41.6097 30.8082 -26.786 -25.6472 60.3163 -0.0296736 -4.90908 -0.691639 -1.08696e-09 6.0741e-10 7.31998e-10 -1.87786e-09 1.04596e-09 1.25773e-09 -1.08695e-09 6.0741e-10 7.31989e-10 7.73091 5.47488 0.417314 -1.08696e-09 6.07411e-10 7.32e-10 2.90554 0.965183 0.102902 -1.08695e-09 6.07411e-10 7.31996e-10 10.2786 0.731801 0.0259123 -1.08696e-09 6.07413e-10 7.32002e-10 2.22167 -0.733487 -0.20892 3.85536e-13 -1.44193e-12 -1.14379e-13 -79.2968 5.7784 6.0528 11.0668 -4.81515 -19.8197 1.27014 30.2323 -4.69791 -1.05546e-09 -6.16638e-10 -1.7201e-09 -1.8638e-09 -1.02071e-09 -2.94111e-09 -1.05548e-09 -6.1664e-10 -1.7201e-09 -7.73091 5.47488 -0.417314 -1.05546e-09 -6.16644e-10 -1.72011e-09 -2.90554 0.965183 -0.102902 -1.05546e-09 -6.16644e-10 -1.72011e-09 -10.2786 0.731801 -0.0259123 -1.05546e-09 -6.16643e-10 -1.72012e-09 -2.22167 -0.733487 0.20892 -2.03217e-16 0.0 -3.88251e-19 19.7414 -21.0227 4.2132 -0.0322296 31.9274 0.65837 -1.15333 -6.73044 -4.07232 2.03217e-16 0.0 3.88251e-19 27.8789 -48.0169 13.7813 9.80818 73.9882 -10.2743 -168.759 0.993131 -173.272
2.2342 83.9299 19.1086 -463.04 -78.9728 463.694 16.1537 1.76009 0.851267 1.28951 -2.69228 0.285874 -6.18819 -2.01254 -4.25473 8.78919 -11.44 -5.69809 -0.0 0.0 0.0 -0.0 0.0 0.0 4.70763e-13 -1.73711e-12 -1.33484e-13 55.625 41.1207 33.6555 -26.909 -26.0388 60.9423 -0.0298843 -4.92854 -0.694392 -1.21327e-09 7.4883e-10 5.01109e-10 -2.09419e-09 1.28911e-09 8.57144e-10 -1.21326e-09 7.48831e-10 5.01103e-10 7.73091 5.47488 0.417314 -1.21327e-09 7.48832e-10 5.01112e-10 2.90554 0.965183 0.102902 -1.21327e-09 7.48833e-10 5.01106e-10 10.2786 0.731801 0.0259123 -1.21327e-09 7.48834e-10 5.01109e-10 2.22167 -0.733487 -0.20892 4.70613e-13 -1.7371e-12 -1.33583e-13 -78.5065 3.99638 6.91632 10.752 -4.61107 -19.2195 1.32742 30.8302 -4.81161 -1.07818e-09 -1.03085e-09 -2.47046e-09 -1.91999e-09 -1.72528e-09 -4.23532e-09 -1.07819e-09 -1.03085e-09 -2.47046e-09 -7.73091 5.47488 -0.417314 -1.07818e-09 -1.03086e-09 -2.47047e-09 -2.90554 0.965183 -0.102902 -1.07818e-09 -1.03086e-09 -2.47047e-09 -10.2786 0.731801 -0.0259123 -1.07818e-09 -1.03085e-09 -2.47048e-09 -2.22167 -0.733487 0.20892 -2.03217e-16 0.0 -3.88251e-19 19.9179 -19.5141 4.57213 0.00852486 31.1896 0.824322 -1.27444 -7.06505 -4.33132 2.03217e-16 0.0 3.88251e-19 29.1637 -50.6732 15.5964 -1.623 70.3459 -10.0219 176.27 -14.1655 164.211
1.22098 84.1964 18.9992 -464.535 -78.785 464.893 16.2121 2.15301 1.41405 1.06583 -2.86255 0.417188 -6.20426 -1.97657 -4.30826 8.87191 -11.4541 -5.79548 -0.0 0.0 0.0 -0.0 0.0 0.0 5.15372e-13 -1.99872e-12 -1.18715e-13 53.8201 40.534 36.2948 -27.0199 -26.4045 61.533 -0.0309434 -5.01793 -0.707047 -1.00587e-09 6.93687e-10 2.0318e-10 -1.73416e-09 1.19357e-09 3.42575e-10 -1.00586e-09 6.93686e-10 2.03173e-10 7.73091 5.47488 0.417314 -1.00587e-09 6.93688e-10 2.03183e-10 2.90554 0.965183 0.102902 -1.00586e-09 6.93687e-10 2.03177e-10 10.2786 0.731801 0.0259123 -1.00587e-09 6.93689e-10 2.03181e-10 2.22167 -0.733487 -0.20892 5.15244e-13 -1.99871e-12 -1.18821e-13 -77.7148 2.78335 7.8073 10.512 -4.45448 -18.7718 1.33983 30.9379 -4.83314 -8.5322e-10 -1.18371e-09 -2.50712e-09 -1.53089e-09 -1.99333e-09 -4.30405e-09 -8.5323e-10 -1.18371e-09 -2.50712e-09 -7.73091 5.47488 -0.417314 -8.53223e-10 -1.18372e-09 -2.50713e-09 -2.90554 0.965183 -0.102902 -8.53222e-10 -1.18372e-09 -2.50712e-09 -10.2786 0.731801 -0.0259123 -8.53218e-10 -1.18372e-09 -2.50713e-09 -2.22167 -0.733487 0.20892 -2.03217e-16 0.0 -3.88251e-19 20.1798 -17.9506 4.9873 0.0393239 30.3818 0.95718 -1.38524 -7.31418 -4.61309 2.03217e-16 0.0 3.88251e-19 30.6711 -53.3207 17.5563 -5.21343 67.6408 -10.9373 167.309 -17.4928 154.029
0.218319 84.468 18.8868 -466.056 -78.5462 466.096 16.2858 2.59531 1.97578 0.795674 -3.02276 0.5488 -6.22483 -1.96683 -4.36381 8.94935 -11.4502 -5.89458 -0.0 0.0 0.0 -0.0 0.0 0.0 5.33533e-13 -2.21339e-12 -8.10079e-14 52.1579 39.8516 38.754 -27.1202 -26.7471 62.0726 -0.032565 -5.14866 -0.725566 -5.66075e-10 5.09182e-10 -1.65869e-10 -9.72617e-10 8.75065e-10 -2.93661e-10 -5.66067e-10 5.0918e-10 -1.65876e-10 7.73091 5.47488 0.417314 -5.66075e-10 5.0918e-10 -1.65865e-10 2.90554 0.965183 0.102902 -5.66069e-10 5.09177e-10 -1.65868e-10 10.2786 0.731801 0.0259123 -5.66082e-10 5.09181e-10 -1.65864e-10 2.22167 -0.733487 -0.20892 5.33445e-13 -2.21339e-12 -8.11228e-14 -76.9259 2.04464 8.72929 10.3551 -4.35648 -18.475 1.30803 30.6166 -4.77155 -4.51706e-10 -1.19533e-09 -2.10564e-09 -8.26271e-10 -2.02673e-09 -3.62099e-09 -4.51712e-10 -1.19533e-09 -2.10564e-09 -7.73091 5.47488 -0.417314 -4.51708e-10 -1.19533e-09 -2.10565e-09 -2.90554 0.965183 -0.102902 -4.51708e-10 -1.19533e-09 -2.10564e-09 -10.2786 0.731801 -0.0259123 -4.51704e-10 -1.19533e-09 -2.10565e-09 -2.22167 -0.733487 0.20892 -2.03217e-16 0.0 -3.88251e-19 20.4427 -16.2897 5.43942 0.0663425 29.4702 1.07664 -1.49182 -7.49229 -4.90962 2.03217e-16 0.0 3.88251e-19 32.3869 -55.9288 19.7222 -5.07076 65.2552 -12.2811 168.168 -16.5594 152.984
